<?xml version="1.0" encoding="utf-8"?>
<svg version="1.1" id="logo" xmlns="http://www.w3.org/2000/svg" xmlns:xlink="http://www.w3.org/1999/xlink" x="0px"
  y="0px" viewBox="0 0 505 138" style="enable-background:new 0 0 505 138;" xml:space="preserve">
  <style type="text/css">
    .border {
      fill: none;
      stroke: currentColor;
      stroke-width: 10;
      stroke-miterlimit: 10;
    }
  </style>
  <g>
    <path d="M78.1,46.4c-1-1.2-2.2-2.2-3.6-3.1c-1.4-0.9-2.9-1.7-4.6-2.4c-1.7-0.7-3.5-1.2-5.5-1.6c-1.9-0.4-4-0.6-6.2-0.6
		c-6.3,0-11,1.2-13.9,3.6S40,47.9,40,52c0,2.9,0.7,5.1,2.1,6.7c1.4,1.6,3.6,3,6.6,4c3,1,6.8,2.1,11.4,3.2c5.2,1.1,9.6,2.4,13.4,3.9
		c3.7,1.5,6.6,3.5,8.7,6.1s3.1,6,3.1,10.3c0,3.3-0.6,6.2-1.9,8.7c-1.3,2.4-3.1,4.5-5.4,6.1c-2.3,1.6-5.1,2.8-8.3,3.6
		c-3.2,0.8-6.7,1.2-10.5,1.2c-3.7,0-7.3-0.4-10.8-1.2c-3.4-0.8-6.7-1.9-9.7-3.5s-5.9-3.5-8.6-5.9l3.6-5.8c1.3,1.4,2.8,2.6,4.6,3.8
		c1.8,1.2,3.8,2.3,6,3.2c2.2,1,4.6,1.7,7.1,2.2c2.5,0.5,5.2,0.8,7.9,0.8c5.8,0,10.3-1.1,13.5-3.2c3.2-2.1,4.8-5.2,4.8-9.4
		c0-3-0.8-5.4-2.4-7.2c-1.6-1.8-4.1-3.3-7.3-4.4c-3.3-1.2-7.3-2.3-12-3.4c-5-1.2-9.3-2.4-12.8-3.9c-3.5-1.4-6.1-3.3-7.8-5.7
		s-2.6-5.4-2.6-9.3c0-4.5,1.1-8.3,3.3-11.4c2.2-3.1,5.3-5.4,9.1-7c3.9-1.6,8.3-2.4,13.4-2.4c3.2,0,6.2,0.3,8.9,1
		c2.8,0.6,5.3,1.6,7.6,2.8c2.3,1.2,4.5,2.8,6.6,4.6L78.1,46.4z" />
    <path d="M149,39.1h-25.8v66.1h-7.1V39.1H90.3v-6.3H149V39.1z" />
    <path d="M186.5,105.7c-5.1,0-9.7-1-13.9-3.1c-4.1-2-7.7-4.8-10.7-8.3c-3-3.5-5.3-7.4-6.9-11.8c-1.6-4.4-2.4-8.9-2.4-13.5
		c0-4.8,0.8-9.4,2.5-13.8c1.7-4.4,4.1-8.3,7.2-11.7c3.1-3.4,6.7-6.2,10.9-8.2c4.1-2,8.6-3,13.5-3c5.1,0,9.7,1.1,13.9,3.2
		c4.1,2.1,7.7,4.9,10.7,8.5c3,3.5,5.3,7.5,6.9,11.8c1.6,4.4,2.4,8.8,2.4,13.4c0,4.8-0.9,9.4-2.5,13.8c-1.7,4.4-4.1,8.3-7.1,11.7
		c-3.1,3.4-6.7,6.1-10.8,8.1C195.8,104.7,191.3,105.7,186.5,105.7z M159.6,69c0,3.9,0.6,7.7,1.9,11.4c1.3,3.6,3.1,6.9,5.5,9.7
		c2.4,2.8,5.2,5.1,8.5,6.7c3.3,1.7,6.9,2.5,10.9,2.5c4.1,0,7.9-0.9,11.2-2.6c3.3-1.7,6.1-4,8.5-6.9c2.3-2.9,4.1-6.1,5.4-9.7
		c1.2-3.6,1.8-7.3,1.8-11c0-3.9-0.6-7.7-1.9-11.3c-1.3-3.6-3.1-6.8-5.6-9.7c-2.4-2.9-5.3-5.1-8.5-6.7c-3.3-1.6-6.9-2.4-10.8-2.4
		c-4.1,0-7.8,0.9-11.1,2.5c-3.3,1.7-6.1,4-8.5,6.9c-2.3,2.9-4.1,6.1-5.4,9.7C160.3,61.6,159.6,65.3,159.6,69z" />
    <path d="M233.9,105.2V32.8h30.6c3.1,0,6,0.6,8.6,1.9c2.6,1.3,4.8,3,6.8,5.3c1.9,2.2,3.4,4.7,4.5,7.3c1.1,2.7,1.6,5.4,1.6,8.2
		c0,3.5-0.7,6.7-2,9.8c-1.3,3.1-3.2,5.6-5.6,7.8c-2.4,2.1-5.3,3.5-8.5,4.2l17.7,27.9h-8.1l-17-26.7H241v26.7H233.9z M241,72.2h23.7
		c2.9,0,5.3-0.8,7.4-2.3c2.1-1.6,3.7-3.6,4.9-6.2c1.2-2.6,1.7-5.3,1.7-8.1c0-2.9-0.7-5.6-2-8.1c-1.3-2.5-3.1-4.5-5.3-6
		c-2.2-1.5-4.7-2.3-7.4-2.3H241V72.2z" />
    <path d="M358.1,105.2V57.7l-18.7,35.4h-7.9L313,57.7v47.5H299V32.8h15.2l21.3,41.1L357,32.8h15.1v72.4H358.1z" />
    <path d="M387.2,105.2V32.8h14.1v72.4H387.2z" />
    <path
      d="M423.9,32.8l17.9,26.8l18-26.8H475l-25.1,36.7l24.3,35.7h-15.3l-17.1-25.8l-17,25.8h-15.4l24.3-35.7l-25.1-36.7H423.9z" />
  </g>
  <rect y="0" class="border" width="505" height="138" />
</svg>